<svg width="108.02" height="31.12" viewBox="0 0 108.02 31.12" xmlns="http://www.w3.org/2000/svg">
<defs>
<style>
      .cls-1 {
        fill: url(#paint0_linear_371_1173);
      }

      .cls-1, .cls-2, .cls-3 {
        stroke-width: 0px;
      }

      .cls-3 {
        fill: #494949;
      }
    </style>
<linearGradient id="paint0_linear_371_1173" x1="29.94" y1="405.96" x2="29.91" y2="388.67" gradientTransform="translate(0 406.23) scale(1 -1)" gradientUnits="userSpaceOnUse">
<stop offset="0.145833" stop-color="#FF6110"/>
<stop offset="1" stop-color="#494949"/>
</linearGradient>
</defs>
<path class="cls-3" d="M17.94,18.4c-.03.17-.07.33-.1.5-.86.14-1.71.24-2.57.29.91-.25,1.8-.51,2.67-.79Z"/>
  <path class="cls-1" d="M37.07,2.07c-2.45,6.73-7.49,12.8-14.29,15.47,0,0,.27-1.33.27-1.33,5.52-3.14,9.29-8.77,10.81-14.8.54-.29,2.01-1.12,2.01-1.12,0,0,.77,1.14,1.2,1.79Z"/>
  <path class="cls-2" d="M25.49,4.38c.05-.24.13-.4.4-.42,1.19-.09,2.38-.28,3.57-.27,1.47.01,2.44,1.04,2.63,2.6.76-1.57,1.35-3.21,1.78-4.89-.02-.02-.04-.03-.06-.04-1.17-.79-2.51-1.01-3.89-1.07-2.81-.12-5.53.42-8.22,1.16-.14.04-.31.26-.34.42-.24,1.15-4.44,21.6-4.44,21.6h3.15c.89,0,1.65-.68,1.82-1.55,0,0,3.4-16.53,3.61-17.54Z"/>
  <path class="cls-2" d="M36.14,4.32c-2.51,5.42-6.71,10.18-12.18,12.72,8.85,2.51,14.67-6.13,12.18-12.72Z"/>
  <path class="cls-2" d="M15.81,8.63C9.38,2.47-1.57,9.5.19,17.88c1.09,5.21,6.78,6.37,11.38,5.14,2.92-.78,2.57-3.59,2.57-3.59-3.66.84-10.63.08-10.06-2.69,2.82.78,7.11.97,10.12-.57,3.93-2.01,3.26-5.7,1.61-7.54ZM13.12,12.14c-.98,2.01-6.59,1.99-8.61,1.41,1.27-2.85,4.6-4.56,7.65-3.32.92.37,1.33,1.15.96,1.92Z"/>
  <path class="cls-2" d="M55.83,7.58c-2.72-.89-5.98-1.29-8.37-1.29-6.32,0-10.3,5.65-10.12,10.61.07,1.9.72,6.22,6.51,6.72,1.61.14,3.14-.07,4.49-1.05.01,0,.1-.09.08.03-.05.28-.16.88-.16.88h4.45c.27,0,.31-.18.35-.37,1.03-5,2.07-9.99,3.08-14.99.06-.32,0-.43-.31-.53ZM50.92,10.56c-.54,2.58-1.07,5.16-1.62,7.74-.05.22-.16.42-.33.57-1.3,1.15-2.82,1.53-4.51,1.14-3.25-.74-2.71-5.31-1.58-7.52,1.04-2.01,3.38-3.14,5.76-2.83,2.39.31,2.34.6,2.28.9Z"/>
  <path class="cls-2" d="M107.97,12.32c-.33-3.95-3.47-6.03-7.24-6.03-7.9,0-10.5,6.55-10.26,11.1.23,4.37,4.12,6.41,8.05,6.04,3.64-.22,6.38-1.87,8.08-5.1.98-1.88,1.61-3.85,1.38-6.01ZM97.08,19.73c-3.48-.71-2.3-5.27-1.57-6.62,1.75-3.25,4.14-3.4,5.49-3.19,1.79.28,2.81,1.55,2.71,3.7-.15,3.25-2.59,6.93-6.63,6.11Z"/>
  <path class="cls-2" d="M55.17,30.83l.59-2.87c.09-.34.41-.57.76-.58,1.76-.05,2.37-.35,3.25-1.31.67-.85,1.18-1.53,1.75-2.32.08-.1.08-.29.05-.42-.96-4.82-3.37-17.04-3.37-17.04,0,0,4.4-.04,4.67,1.71.53,3.36,1.79,10.14,1.85,10.41.16-.27,4.27-7.27,6.19-10.64.94-1.65,4.54-1.48,5.73-1.48-3.55,5.88-10.43,17.29-11.5,19.06-2.79,4.6-5.24,5.52-7.81,5.49-.7,0-2.16,0-2.16,0Z"/>
  <path class="cls-2" d="M87.74,18.74c-.25,1.21-.7,3.41-.72,3.48-.03.13-.08.27-.25.34-2.37.88-4.91,1.3-7.22.48-7.46-2.62-5.46-14.53,2.34-16.42,3.83-.93,7.64.42,7.83.47.22.07.35.28.31.5-.13.66-.56,2.76-.58,2.84-2.16-.69-4.43-1.19-6.63-.43-4.38,1.53-5.34,9-.98,9.87,2.09.42,4-.32,5.9-1.15Z"/>
</svg>
